<svg viewBox="0 0 54 32" fill="none" xmlns="http://www.w3.org/2000/svg">
  <path d="M37.703 8.13652L40.8196 11.7984C41.1764 12.2097 41.4928 12.5481 41.6207 12.7405C42.5528 13.6668 43.0754 14.9187 43.0747 16.2233C42.9872 17.7623 41.9842 18.8105 41.0552 19.9316L38.8742 22.4923L37.7366 23.8191C37.6958 23.8648 37.6695 23.9214 37.6609 23.9817C37.6524 24.042 37.6619 24.1035 37.6884 24.1586C37.7149 24.2136 37.7572 24.2598 37.81 24.2914C37.8628 24.3231 37.9239 24.3387 37.9857 24.3365H49.3551C51.0919 24.3365 53.2796 25.796 53.1517 28.0117C53.1481 29.0188 52.7406 29.9836 52.0181 30.6957C51.2955 31.4079 50.3164 31.8095 49.2946 31.813H31.4898C30.3185 31.813 27.1682 31.939 26.2864 29.2523C26.0988 28.6908 26.0732 28.0891 26.2123 27.5142C26.4687 26.664 26.8742 25.8647 27.4106 25.1525C28.3058 23.8257 29.2752 22.4989 30.231 21.212C31.4629 19.527 32.7284 17.895 33.9737 16.1768C34.018 16.1209 34.042 16.052 34.042 15.9811C34.042 15.9102 34.018 15.8414 33.9737 15.7854L29.4502 10.4783C29.4207 10.4398 29.3825 10.4086 29.3387 10.3871C29.2949 10.3656 29.2467 10.3545 29.1978 10.3545C29.1488 10.3545 29.1006 10.3656 29.0568 10.3871C29.013 10.4086 28.9748 10.4398 28.9453 10.4783C27.7337 12.0903 22.4293 19.2284 21.2984 20.6746C20.1675 22.1208 17.3807 22.2004 15.8392 20.6746L8.76438 13.6758C8.71918 13.6311 8.66154 13.6007 8.59876 13.5883C8.53598 13.576 8.47089 13.5823 8.41175 13.6065C8.35261 13.6306 8.30209 13.6716 8.2666 13.7241C8.2311 13.7766 8.21224 13.8383 8.2124 13.9014V27.3616C8.22905 28.3168 7.94204 29.2532 7.39158 30.0395C6.84113 30.8259 6.05482 31.4228 5.14284 31.7466C4.56011 31.9465 3.93734 32.0062 3.32645 31.9207C2.71557 31.8352 2.13427 31.607 1.63103 31.2552C1.12779 30.9034 0.717187 30.4381 0.433467 29.8981C0.149747 29.3581 0.00112705 28.7591 0 28.151V3.95052C0.0405576 3.07839 0.358982 2.24105 0.910025 1.55746C1.46107 0.873876 2.2167 0.378824 3.06955 0.142652C3.80111 -0.0494218 4.57119 -0.0474999 5.30175 0.148222C6.03231 0.343943 6.6974 0.726508 7.2296 1.25715L18.1077 11.9908C18.1402 12.0234 18.1796 12.0486 18.2232 12.0645C18.2667 12.0804 18.3132 12.0867 18.3595 12.0829C18.4057 12.0791 18.4505 12.0653 18.4908 12.0425C18.531 12.0197 18.5657 11.9885 18.5923 11.951L26.3201 1.40973C26.6772 0.981795 27.1249 0.635968 27.6319 0.396468C28.1388 0.156969 28.6928 0.0295864 29.255 0.0232421H49.3551C49.9052 0.0241358 50.4488 0.140771 50.9494 0.365348C51.4501 0.589925 51.8963 0.917267 52.2583 1.32548C52.6203 1.73369 52.8896 2.21337 53.0483 2.73242C53.207 3.25148 53.2515 3.79795 53.1786 4.33529C53.037 5.26741 52.5571 6.11727 51.828 6.72723C51.0989 7.33719 50.1701 7.66585 49.2138 7.65224H37.9588C37.9022 7.6536 37.8471 7.66988 37.7991 7.69938C37.7511 7.72888 37.712 7.77053 37.6858 7.81998C37.6597 7.86943 37.6475 7.92488 37.6505 7.98055C37.6536 8.03623 37.6717 8.09009 37.703 8.13652Z" fill="#F5F3F7">
  </path>
</svg>