<svg xmlns="http://www.w3.org/2000/svg" viewBox="0 0 32 32"><link xmlns="" type="text/css" rel="stylesheet" id="dark-mode-custom-link"/><link xmlns="" type="text/css" rel="stylesheet" id="dark-mode-general-link"/><style xmlns="" lang="en" type="text/css" id="dark-mode-custom-style"/><style xmlns="" lang="en" type="text/css" id="dark-mode-native-style"/><style xmlns="" lang="en" type="text/css" id="dark-mode-native-sheet"/><defs><style>.cls-1{fill:#2f3fda;}.cls-2,.cls-4,.cls-6,.cls-7{fill:none;}.cls-2,.cls-4,.cls-5,.cls-6,.cls-7{stroke:#fff;stroke-miterlimit:10;}.cls-2{stroke-width:0.25px;}.cls-3,.cls-5,.cls-9{fill:#fff;}.cls-3,.cls-4{opacity:0;}.cls-4{stroke-width:10px;}.cls-5{stroke-width:0.5px;}.cls-7{stroke-width:0.2px;}.cls-8{fill:#3f200b;opacity:0.43;}</style></defs><g id="Layer_5" data-name="Layer 5"><circle class="cls-1" cx="16.01" cy="16.03" r="15.97"/></g><g id="hat"><path class="cls-2" d="M4.13,21.25a4.77,4.77,0,0,1,2.59,0,4.38,4.38,0,0,1,1.88,1c.4.38.43.52.74.72a2.63,2.63,0,0,0,2.27.13"/><path class="cls-2" d="M9.12,22.76a3.38,3.38,0,0,1,2.4-.9,6.2,6.2,0,0,1,1.56.45c.38.13.57.23,1.49.6l.83.33"/><path class="cls-2" d="M8.46,24.43a5.57,5.57,0,0,1,1.9-.16,9.82,9.82,0,0,1,2.36.68c1.24.45,1.43.61,1.93.6a2.82,2.82,0,0,0,1.72-.73"/><path class="cls-2" d="M15,24.65a1.71,1.71,0,0,1,.78-.61,1.89,1.89,0,0,1,1.39.07c.4.17.42.34.77.45A1.62,1.62,0,0,0,19,24.47"/><path class="cls-2" d="M20.28,25.55a1.67,1.67,0,0,1,.77-.61,1.92,1.92,0,0,1,1.4.07c.4.17.42.34.77.45a1.63,1.63,0,0,0,1.05-.09"/><path class="cls-2" d="M23.54,22.49a3.46,3.46,0,0,1,1.58-.8,3.26,3.26,0,0,1,2.1.27"/><path class="cls-2" d="M17.67,22.72a3.66,3.66,0,0,1,2-.83,3.1,3.1,0,0,1,2.27.79"/><path class="cls-2" d="M12.2,23.85a3.65,3.65,0,0,0,1.84,0,14,14,0,0,0,1.63-.73,4.15,4.15,0,0,1,1.93-.47,2.81,2.81,0,0,1,1.67.82"/><path class="cls-2" d="M17.85,23.66a3.65,3.65,0,0,0,1.84,0,16.44,16.44,0,0,0,1.63-.72,4.06,4.06,0,0,1,1.93-.48,2.84,2.84,0,0,1,1.67.82"/><path class="cls-3" d="M29.18,17.23a13,13,0,0,0-.55-4.56A13.36,13.36,0,0,0,23,5.48a13.06,13.06,0,0,0-6.71-2A12.86,12.86,0,0,0,9,5.89a12.8,12.8,0,0,0-3.72,3.9,13.17,13.17,0,0,0-1.88,7.45H4.4A12.34,12.34,0,0,1,7.8,8.13a12.58,12.58,0,0,1,8.45-3.58,11.51,11.51,0,0,1,3.65.59,12.23,12.23,0,0,1,5.8,4.12,11.77,11.77,0,0,1,2.43,7.1c0,.36,0,.67-.05.88Z"/><path class="cls-4" d="M2.45,17.29a13.66,13.66,0,0,1,3-9.39A14,14,0,0,1,15.84,2.8a13.85,13.85,0,0,1,5.35,1,14.1,14.1,0,0,1,4.22,2.56,13.84,13.84,0,0,1,2.81,3.43,13.2,13.2,0,0,1,1.53,3.91A13.54,13.54,0,0,1,30,17.29"/><path class="cls-5" d="M10.87,19a5.9,5.9,0,0,1,.22-5.22A5.93,5.93,0,0,1,15.79,11a6,6,0,0,1,4.38,1.76A6.08,6.08,0,0,1,21.43,19l1.9-.12a7.36,7.36,0,0,0,.31-2.15,7.94,7.94,0,0,0-1.71-4.78,6.59,6.59,0,0,0-1-1.1,8.24,8.24,0,0,0-4.19-1.64c-.32,0-.63,0-.63,0s-.36,0-.74.06a9.16,9.16,0,0,0-4.14,1.66,7.38,7.38,0,0,0-1,1A8.46,8.46,0,0,0,8.58,16c0,.34,0,.68,0,.68a6.32,6.32,0,0,0,0,.64,7.33,7.33,0,0,0,.23,1.29q0,.18.09.33Z"/><path class="cls-5" d="M15.58,6.12a.86.86,0,0,1,.57-.21.74.74,0,0,1,.49.18l-.2,2.45h-.53Z"/><path class="cls-5" d="M15.9,8.54l-.39.34a.14.14,0,0,0,0,.07.36.36,0,0,0,0,.21l.78,0,.61,0a.29.29,0,0,0,0-.21.19.19,0,0,0-.05-.09l-.37-.3Z"/><path class="cls-5" d="M8.2,9.54A.82.82,0,0,1,8.46,9a.76.76,0,0,1,.48-.21l1.56,1.9-.39.38Z"/><path class="cls-5" d="M10.11,11.06l0,.51a.16.16,0,0,0,0,.07.34.34,0,0,0,.14.15c.16-.18.34-.37.54-.56a5.76,5.76,0,0,1,.45-.42.35.35,0,0,0-.15-.15l-.09,0-.48,0Z"/><path class="cls-5" d="M23.92,9.53A.84.84,0,0,0,23.66,9a.89.89,0,0,0-.48-.21l-1.56,1.91.39.37Z"/><path class="cls-5" d="M22,11.05l0,.52,0,.07a.7.7,0,0,1-.15.15,7.08,7.08,0,0,0-.54-.57q-.22-.22-.45-.42a.35.35,0,0,1,.15-.15l.09,0,.48.05Z"/><path class="cls-5" d="M5.51,17.22a.82.82,0,0,1-.2-.57.78.78,0,0,1,.19-.49L8,16.4v.54Z"/><path class="cls-5" d="M7.94,16.94l.33.4.07,0a.49.49,0,0,0,.21,0,6.66,6.66,0,0,1,0-.78c0-.22,0-.42,0-.62a.36.36,0,0,0-.21,0,.16.16,0,0,0-.08,0L8,16.39Z"/><path class="cls-5" d="M26.71,17.21a.87.87,0,0,0,.2-.57.78.78,0,0,0-.19-.49l-2.45.24v.54Z"/><path class="cls-5" d="M24.28,16.93l-.33.4-.08,0a.35.35,0,0,1-.2,0c0-.25,0-.51,0-.78a6.13,6.13,0,0,0,0-.62.39.39,0,0,1,.22,0L24,16l.31.38Z"/><ellipse class="cls-6" cx="15.98" cy="16.08" rx="12.45" ry="12.55"/><ellipse class="cls-7" cx="15.98" cy="16.11" rx="13.92" ry="14.03"/><path class="cls-8" d="M12.57,18.56c0-.07.31-.15.4-.18.56-.13,1.69-.26,2.5-.34.61-.06,2.7-.27,3.7-.3.15,0,.72,0,.76.15s0,.13,0,.15a.52.52,0,0,1-.31.16c-.2,0-.4.12-.61.15s-.7.11-1.06.15l-.66.07-1,.12a21.21,21.21,0,0,1-3.23,0,1.09,1.09,0,0,1-.27,0C12.65,18.63,12.57,18.6,12.57,18.56Z"/><path class="cls-9" d="M11.47,15.67a1.25,1.25,0,0,1,.14-.2.93.93,0,0,1,.39-.25,6,6,0,0,1,.75-.24c1-.21.72-.16,1.21-.25l.94-.17c.42-.06.73-.08,1.23-.12a23.65,23.65,0,0,1,3.41,0l.27.05a3,3,0,0,1,.61.18.33.33,0,0,1,.14.1.29.29,0,0,1,.09.12l0,.33a22.28,22.28,0,0,1-.5,2.65.45.45,0,0,1-.06.12.52.52,0,0,1-.16.12,2.05,2.05,0,0,1-.25.1,15.44,15.44,0,0,1-2.12.38l-1.6.12c-1.32.08-2,.08-2.4.07H12.9a.56.56,0,0,1-.31-.1.46.46,0,0,1-.14-.14c0-.18-.11-.36-.17-.54C12,17.17,11.76,16.4,11.47,15.67Z"/><path class="cls-9" d="M13.21,14.89a4.16,4.16,0,0,1,.47-.46,4.59,4.59,0,0,1,.65-.46,3.72,3.72,0,0,1,1.26-.39,4.09,4.09,0,0,1,1.46,0,4.22,4.22,0,0,1,1,.37,5.22,5.22,0,0,1,.67.39,22.57,22.57,0,0,0-3,.11A23.21,23.21,0,0,0,13.21,14.89Z"/><path class="cls-1" d="M20.56,15.34a3.16,3.16,0,0,0-1.13-.26c0-.09,0-.13,0-.21a3.1,3.1,0,0,1,1.15.26.31.31,0,0,1,0,.1A.22.22,0,0,1,20.56,15.34Z"/><path class="cls-1" d="M20.46,16a2.86,2.86,0,0,0-1.07-.27c0-.08,0-.12,0-.2a2.78,2.78,0,0,1,1.1.23.45.45,0,0,1,0,.11A.4.4,0,0,1,20.46,16Z"/><path class="cls-1" d="M17.72,15.64a12.62,12.62,0,0,0-5.84,1,.42.42,0,0,1-.07-.12.16.16,0,0,1,0-.09,13,13,0,0,1,6-1Z"/><path class="cls-1" d="M18,15a14.61,14.61,0,0,0-6.34,1,.52.52,0,0,1-.07-.11.22.22,0,0,1,0-.1,15.07,15.07,0,0,1,6.47-1Z"/><path class="cls-1" d="M18.34,15.34a.17.17,0,0,0,.11.06l.24,0,.21,0a.42.42,0,0,1,.17.1.55.55,0,0,1,.15.24.58.58,0,0,1,.06.3.44.44,0,0,1-.1.23.46.46,0,0,1-.22.14.6.6,0,0,1-.3,0l-.12,0-.12,0a.13.13,0,0,0-.09,0s0,0,0,.09l-.13-.11,0-.39.17-.09a.35.35,0,0,0,0,.18.27.27,0,0,0,.09.12.33.33,0,0,0,.13.07.34.34,0,0,0,.15,0,.4.4,0,0,0,.15,0,.37.37,0,0,0,.14-.07.23.23,0,0,0,.07-.07.17.17,0,0,0,0-.1.29.29,0,0,0,0-.09A.27.27,0,0,0,19,15.9l-.21-.09-.21-.06-.19-.05a.36.36,0,0,1-.15-.08.44.44,0,0,1-.08-.11.74.74,0,0,1,0-.14.66.66,0,0,1,0-.14.5.5,0,0,1,.05-.13.45.45,0,0,1,.15-.18.39.39,0,0,1,.2-.08.45.45,0,0,1,.23,0A.54.54,0,0,1,19,15l.06-.1.16.07,0,.32-.15.12a.36.36,0,0,0-.07-.18.53.53,0,0,0-.14-.11.35.35,0,0,0-.18-.05.32.32,0,0,0-.17,0,.27.27,0,0,0-.13.07.22.22,0,0,0-.05.14A.18.18,0,0,0,18.34,15.34Z"/></g></svg>